<svg width="73" height="73" viewBox="0 0 73 73" fill="none" xmlns="http://www.w3.org/2000/svg">
<path fill-rule="evenodd" clip-rule="evenodd" d="M0 36.29C0 16.2477 16.2474 0 36.29 0C56.3323 0 72.58 16.2477 72.58 36.29C72.58 56.3326 56.3323 72.58 36.29 72.58C16.2474 72.58 0 56.3326 0 36.29ZM27.3172 18.3064L13.4008 56.947L22.0184 53.9096L33.9063 20.9013C34.6298 19.0755 35.4651 18.4183 36.8498 18.3893C38.2344 18.4183 39.0697 19.0755 39.7933 20.9013L51.6812 53.9096L60.2987 56.947L46.3823 18.3064C44.6165 13.7949 41.3243 11.2412 36.9476 11.1674V11.1658L36.9079 11.1659L36.8498 11.1662C36.8172 11.1659 36.7846 11.1658 36.7519 11.1658V11.1674C32.3752 11.2412 29.0831 13.7949 27.3172 18.3064ZM36.9315 48.3449C40.2306 48.3449 42.905 45.6087 42.905 42.2335C42.905 38.8583 40.2306 36.1222 36.9315 36.1222C33.6324 36.1222 30.9579 38.8583 30.9579 42.2335C30.9579 45.6087 33.6324 48.3449 36.9315 48.3449Z" fill="url(#paint0_linear)"/>
<defs>
<linearGradient id="paint0_linear" x1="0" y1="0" x2="0" y2="72.58" gradientUnits="userSpaceOnUse">
<stop stop-color="#208FFA"/>
<stop offset="0.333333" stop-color="#42C1FD"/>
<stop offset="1" stop-color="#2090FA"/>
</linearGradient>
</defs>
</svg>
