<svg width="73" height="73" viewBox="0 0 73 73" fill="none" xmlns="http://www.w3.org/2000/svg">
<path fill-rule="evenodd" clip-rule="evenodd" d="M0 36.2903C0 16.2478 16.2475 0 36.2903 0C56.3328 0 72.5806 16.2478 72.5806 36.2903C72.5806 56.3331 56.3328 72.5806 36.2903 72.5806C16.2475 72.5806 0 56.3331 0 36.2903ZM27.3172 18.3065L13.4007 56.9474L22.0183 53.91L33.9063 20.9014C34.6299 19.0756 35.4651 18.4184 36.8498 18.3894C38.2345 18.4184 39.0697 19.0756 39.7933 20.9014L51.6813 53.91L60.2989 56.9474L46.3824 18.3065C44.6166 13.795 41.3244 11.2412 36.9476 11.1675V11.1658C36.915 11.1658 36.8824 11.1659 36.8498 11.1662C36.8172 11.1659 36.7846 11.1658 36.752 11.1658V11.1675C32.3752 11.2412 29.083 13.795 27.3172 18.3065ZM36.9315 48.3452C40.2306 48.3452 42.9051 45.6091 42.9051 42.2338C42.9051 38.8586 40.2306 36.1224 36.9315 36.1224C33.6324 36.1224 30.9579 38.8586 30.9579 42.2338C30.9579 45.6091 33.6324 48.3452 36.9315 48.3452Z" fill="url(#paint0_linear)"/>
<defs>
<linearGradient id="paint0_linear" x1="0" y1="0" x2="0" y2="72.5806" gradientUnits="userSpaceOnUse">
<stop stop-color="#FEC300"/>
<stop offset="0.333333" stop-color="#FEE552"/>
<stop offset="1" stop-color="#D4AF37"/>
</linearGradient>
</defs>
</svg>
