<svg width="115" height="112" viewBox="0 0 115 112" fill="none" xmlns="http://www.w3.org/2000/svg">
<g filter="url(#filter0_d)">
<path fill-rule="evenodd" clip-rule="evenodd" d="M20.5939 61C20.5939 41.1178 37.0597 25 57.3718 25C77.6835 25 94.1497 41.1178 94.1497 61C94.1497 80.8824 77.6835 97 57.3718 97C37.0597 97 20.5939 80.8824 20.5939 61ZM48.2774 43.1604L34.1738 81.4923L42.9071 78.4791L54.9548 45.7345C55.6881 43.9234 56.5347 43.2714 57.9378 43.2426C59.3413 43.2714 60.1875 43.9234 60.9209 45.7345L72.9686 78.4791L81.7022 81.4923L67.5987 43.1604C65.809 38.685 62.4725 36.1516 58.0371 36.0785V36.0768L57.9378 36.0773L57.8389 36.0768V36.0785C53.4031 36.1516 50.0666 38.685 48.2774 43.1604ZM58.0206 72.9588C61.3641 72.9588 64.0746 70.2444 64.0746 66.8964C64.0746 63.5481 61.3641 60.8338 58.0206 60.8338C54.6771 60.8338 51.9669 63.5481 51.9669 66.8964C51.9669 70.2444 54.6771 72.9588 58.0206 72.9588Z" fill="url(#paint0_linear)"/>
</g>
<defs>
<filter id="filter0_d" x="0.593903" y="0" width="113.556" height="112" filterUnits="userSpaceOnUse" color-interpolation-filters="sRGB">
<feFlood flood-opacity="0" result="BackgroundImageFix"/>
<feColorMatrix in="SourceAlpha" type="matrix" values="0 0 0 0 0 0 0 0 0 0 0 0 0 0 0 0 0 0 127 0"/>
<feOffset dy="-5"/>
<feGaussianBlur stdDeviation="10"/>
<feColorMatrix type="matrix" values="0 0 0 0 0.554167 0 0 0 0 0.554167 0 0 0 0 0.554167 0 0 0 0.2 0"/>
<feBlend mode="normal" in2="BackgroundImageFix" result="effect1_dropShadow"/>
<feBlend mode="normal" in="SourceGraphic" in2="effect1_dropShadow" result="shape"/>
</filter>
<linearGradient id="paint0_linear" x1="20.5939" y1="25" x2="20.5939" y2="97" gradientUnits="userSpaceOnUse">
<stop stop-color="#F6BC0D"/>
<stop offset="1" stop-color="#F4C148"/>
</linearGradient>
</defs>
</svg>
