<svg width="73" height="73" viewBox="0 0 73 73" fill="none" xmlns="http://www.w3.org/2000/svg">
<path fill-rule="evenodd" clip-rule="evenodd" d="M0 36.2903C0 16.2478 16.2475 0 36.2903 0C56.3328 0 72.5806 16.2478 72.5806 36.2903C72.5806 56.3331 56.3328 72.5806 36.2903 72.5806C16.2475 72.5806 0 56.3331 0 36.2903ZM27.3176 18.3065L13.4011 56.9475L22.0187 53.9101L33.9067 20.9014C34.6302 19.0757 35.4655 18.4185 36.8502 18.3895C38.2348 18.4185 39.0701 19.0757 39.7937 20.9014L51.6817 53.9101L60.2993 56.9475L46.3828 18.3065C44.6169 13.795 41.3248 11.2413 36.948 11.1675V11.1659C36.9154 11.1659 36.8828 11.166 36.8502 11.1663C36.8176 11.166 36.785 11.1659 36.7523 11.1659V11.1675C32.3756 11.2413 29.0834 13.795 27.3176 18.3065ZM36.9319 48.3453C40.231 48.3453 42.9055 45.6091 42.9055 42.2339C42.9055 38.8587 40.231 36.1225 36.9319 36.1225C33.6328 36.1225 30.9583 38.8587 30.9583 42.2339C30.9583 45.6091 33.6328 48.3453 36.9319 48.3453Z" fill="url(#paint0_linear)"/>
<defs>
<linearGradient id="paint0_linear" x1="0" y1="0" x2="0" y2="72.5806" gradientUnits="userSpaceOnUse">
<stop stop-color="white"/>
<stop offset="1" stop-color="#D5D4D2"/>
</linearGradient>
</defs>
</svg>
