<svg width="115" height="112" viewBox="0 0 115 112" fill="none" xmlns="http://www.w3.org/2000/svg">
<g filter="url(#filter0_d)">
<path fill-rule="evenodd" clip-rule="evenodd" d="M20.4694 61C20.4694 41.1178 36.9352 25 57.2473 25C77.559 25 94.0252 41.1178 94.0252 61C94.0252 80.8824 77.559 97 57.2473 97C36.9352 97 20.4694 80.8824 20.4694 61ZM48.1529 43.1604L34.0493 81.4923L42.7826 78.4791L54.8303 45.7345C55.5636 43.9234 56.4102 43.2714 57.8133 43.2426C59.2168 43.2714 60.063 43.9234 60.7964 45.7345L72.8441 78.4791L81.5777 81.4923L67.4741 43.1604C65.6845 38.685 62.348 36.1516 57.9126 36.0785V36.0768L57.8133 36.0773L57.7144 36.0768V36.0785C53.2786 36.1516 49.9421 38.685 48.1529 43.1604ZM57.8961 72.9588C61.2395 72.9588 63.9501 70.2444 63.9501 66.8964C63.9501 63.5481 61.2395 60.8338 57.8961 60.8338C54.5526 60.8338 51.8424 63.5481 51.8424 66.8964C51.8424 70.2444 54.5526 72.9588 57.8961 72.9588Z" fill="url(#paint0_linear)"/>
</g>
<defs>
<filter id="filter0_d" x="0.469391" y="0" width="113.556" height="112" filterUnits="userSpaceOnUse" color-interpolation-filters="sRGB">
<feFlood flood-opacity="0" result="BackgroundImageFix"/>
<feColorMatrix in="SourceAlpha" type="matrix" values="0 0 0 0 0 0 0 0 0 0 0 0 0 0 0 0 0 0 127 0"/>
<feOffset dy="-5"/>
<feGaussianBlur stdDeviation="10"/>
<feColorMatrix type="matrix" values="0 0 0 0 0.554167 0 0 0 0 0.554167 0 0 0 0 0.554167 0 0 0 0.2 0"/>
<feBlend mode="normal" in2="BackgroundImageFix" result="effect1_dropShadow"/>
<feBlend mode="normal" in="SourceGraphic" in2="effect1_dropShadow" result="shape"/>
</filter>
<linearGradient id="paint0_linear" x1="20.4694" y1="160.5" x2="20.4694" y2="97" gradientUnits="userSpaceOnUse">
<stop stop-color="white"/>
<stop offset="0.473958" stop-color="#C1C0BD"/>
</linearGradient>
</defs>
</svg>
