<svg width="73" height="73" viewBox="0 0 73 73" fill="none" xmlns="http://www.w3.org/2000/svg">
<path fill-rule="evenodd" clip-rule="evenodd" d="M0 36.7098C0 16.6673 16.2475 0.419434 36.2903 0.419434C56.3328 0.419434 72.5806 16.6673 72.5806 36.7098C72.5806 56.7526 56.3328 73.0001 36.2903 73.0001C16.2475 73.0001 0 56.7526 0 36.7098ZM27.3175 18.7259L13.401 57.3669L22.0186 54.3295L33.9066 21.3208C34.6301 19.495 35.4654 18.8378 36.8501 18.8088C38.2347 18.8378 39.07 19.495 39.7936 21.3208L51.6816 54.3295L60.2992 57.3669L46.3827 18.7259C44.6168 14.2144 41.3247 11.6606 36.9479 11.5869V11.5852C36.9153 11.5852 36.8827 11.5854 36.8501 11.5856C36.8175 11.5854 36.7849 11.5852 36.7523 11.5852V11.5869C32.3755 11.6606 29.0833 14.2144 27.3175 18.7259ZM36.9318 48.7646C40.2309 48.7646 42.9054 46.0285 42.9054 42.6533C42.9054 39.278 40.2309 36.5419 36.9318 36.5419C33.6327 36.5419 30.9582 39.278 30.9582 42.6533C30.9582 46.0285 33.6327 48.7646 36.9318 48.7646Z" fill="url(#paint0_linear)"/>
<defs>
<linearGradient id="paint0_linear" x1="0" y1="0.419434" x2="0" y2="73.0001" gradientUnits="userSpaceOnUse">
<stop stop-color="#B3B3B3"/>
<stop offset="0.333333" stop-color="#E5E5E5"/>
<stop offset="1" stop-color="#939393"/>
</linearGradient>
</defs>
</svg>
