<svg width="26" height="26" viewBox="0 0 26 26" fill="none" xmlns="http://www.w3.org/2000/svg">
<path fill-rule="evenodd" clip-rule="evenodd" d="M13 26C20.1797 26 26 20.1797 26 13C26 5.82028 20.1797 0 13 0C5.82028 0 0 5.82028 0 13C0 20.1797 5.82028 26 13 26ZM6.93752 7.93004C8.19132 7.6 13.1868 7.6 13.1868 7.6C13.1868 7.6 18.1923 7.6 19.4461 7.95004C20.1273 8.13004 20.6702 8.68 20.8479 9.37004C21.1934 10.6401 21.1836 13.2803 21.1836 13.2803C21.1836 13.2803 21.1836 15.9105 20.8479 17.1706C20.6702 17.8706 20.1273 18.4106 19.4461 18.6006C18.1923 18.9306 13.1868 18.9306 13.1868 18.9306C13.1868 18.9306 8.2012 18.9306 6.93752 18.5906C6.25628 18.4006 5.7134 17.8506 5.5258 17.1606C5.2 15.9105 5.2 13.2703 5.2 13.2703C5.2 13.2703 5.2 10.6401 5.5258 9.37004C5.7134 8.68 6.26616 8.12004 6.93752 7.93004ZM15.7538 13.2703L11.5974 10.8402V15.6904L15.7538 13.2703Z" fill="white"/>
</svg>
