<svg width="983" height="438" viewBox="0 0 983 438" fill="none" xmlns="http://www.w3.org/2000/svg">
<path d="M477.227 168.689H445.123L439.019 187H419.549L452.63 98.1328H469.598L502.862 187H483.392L477.227 168.689ZM450.066 153.858H472.283L461.114 120.594L450.066 153.858ZM530.022 104.725V120.96H541.314V133.899H530.022V166.858C530.022 169.3 530.49 171.049 531.426 172.107C532.362 173.165 534.153 173.694 536.797 173.694C538.75 173.694 540.48 173.552 541.985 173.267V186.634C538.527 187.692 534.966 188.221 531.304 188.221C518.934 188.221 512.627 181.975 512.383 169.483V133.899H502.74V120.96H512.383V104.725H530.022ZM546.563 153.37C546.563 146.819 547.824 140.979 550.347 135.853C552.87 130.726 556.491 126.758 561.211 123.951C565.972 121.143 571.486 119.739 577.752 119.739C586.663 119.739 593.926 122.465 599.542 127.918C605.197 133.37 608.351 140.776 609.002 150.135L609.124 154.651C609.124 164.783 606.296 172.921 600.64 179.065C594.984 185.169 587.396 188.221 577.874 188.221C568.353 188.221 560.743 185.169 555.047 179.065C549.391 172.962 546.563 164.661 546.563 154.163V153.37ZM564.202 154.651C564.202 160.918 565.382 165.719 567.742 169.056C570.102 172.352 573.479 174 577.874 174C582.146 174 585.483 172.372 587.884 169.117C590.285 165.821 591.485 160.572 591.485 153.37C591.485 147.225 590.285 142.465 587.884 139.087C585.483 135.71 582.106 134.021 577.752 134.021C573.439 134.021 570.102 135.71 567.742 139.087C565.382 142.424 564.202 147.612 564.202 154.651ZM636.529 120.96L637.078 128.345C641.757 122.608 648.085 119.739 656.06 119.739C664.564 119.739 670.403 123.096 673.577 129.81C678.216 123.096 684.828 119.739 693.414 119.739C700.575 119.739 705.905 121.835 709.405 126.026C712.904 130.176 714.654 136.443 714.654 144.825V187H696.954V144.886C696.954 141.142 696.221 138.416 694.756 136.707C693.292 134.957 690.708 134.083 687.005 134.083C681.715 134.083 678.053 136.605 676.019 141.651L676.08 187H658.44V144.947C658.44 141.122 657.688 138.355 656.182 136.646C654.677 134.937 652.113 134.083 648.492 134.083C643.487 134.083 639.865 136.158 637.627 140.308V187H619.988V120.96H636.529ZM746.88 187H729.18V120.96H746.88V187ZM728.143 103.87C728.143 101.225 729.017 99.0483 730.767 97.3394C732.557 95.6304 734.979 94.7759 738.03 94.7759C741.041 94.7759 743.442 95.6304 745.232 97.3394C747.023 99.0483 747.918 101.225 747.918 103.87C747.918 106.556 747.002 108.753 745.171 110.462C743.381 112.171 741.001 113.025 738.03 113.025C735.06 113.025 732.659 112.171 730.828 110.462C729.038 108.753 728.143 106.556 728.143 103.87ZM788.934 174C792.189 174 794.834 173.104 796.868 171.314C798.903 169.524 799.961 167.143 800.042 164.173H816.583C816.542 168.649 815.321 172.758 812.92 176.502C810.52 180.205 807.224 183.094 803.033 185.169C798.882 187.203 794.284 188.221 789.239 188.221C779.799 188.221 772.352 185.23 766.9 179.249C761.447 173.226 758.721 164.926 758.721 154.346V153.187C758.721 143.014 761.427 134.896 766.839 128.833C772.251 122.771 779.677 119.739 789.117 119.739C797.377 119.739 803.989 122.099 808.953 126.819C813.958 131.499 816.501 137.745 816.583 145.557H800.042C799.961 142.139 798.903 139.372 796.868 137.256C794.834 135.1 792.148 134.021 788.812 134.021C784.702 134.021 781.589 135.527 779.473 138.538C777.398 141.508 776.36 146.351 776.36 153.064V154.896C776.36 161.691 777.398 166.574 779.473 169.544C781.548 172.514 784.702 174 788.934 174ZM521.355 307.365L533.318 244.133H551.568L531.854 333H513.421L498.956 273.552L484.49 333H466.058L446.343 244.133H464.593L476.617 307.243L491.265 244.133H506.768L521.355 307.365ZM596.551 333C595.737 331.413 595.147 329.44 594.781 327.08C590.508 331.84 584.954 334.221 578.118 334.221C571.648 334.221 566.277 332.349 562.005 328.605C557.773 324.862 555.657 320.142 555.657 314.445C555.657 307.447 558.241 302.076 563.409 298.332C568.617 294.589 576.124 292.696 585.931 292.656H594.048V288.872C594.048 285.82 593.255 283.378 591.668 281.547C590.122 279.716 587.66 278.801 584.283 278.801C581.312 278.801 578.973 279.513 577.264 280.937C575.595 282.361 574.761 284.314 574.761 286.796H557.122C557.122 282.972 558.302 279.431 560.662 276.176C563.022 272.921 566.359 270.378 570.672 268.547C574.985 266.675 579.827 265.739 585.198 265.739C593.336 265.739 599.786 267.794 604.546 271.904C609.348 275.973 611.749 281.71 611.749 289.116V317.741C611.789 324.007 612.664 328.748 614.373 331.962V333H596.551ZM581.963 320.732C584.568 320.732 586.968 320.162 589.166 319.023C591.363 317.843 592.99 316.276 594.048 314.323V302.971H587.457C578.627 302.971 573.927 306.022 573.357 312.126L573.296 313.164C573.296 315.361 574.069 317.172 575.616 318.596C577.162 320.02 579.278 320.732 581.963 320.732ZM643.914 333H626.214V239.25H643.914V333ZM677.117 333H659.417V239.25H677.117V333ZM722.1 334.221C712.416 334.221 704.522 331.25 698.418 325.31C692.356 319.369 689.324 311.455 689.324 301.567V299.858C689.324 293.225 690.606 287.305 693.169 282.097C695.733 276.848 699.354 272.819 704.034 270.012C708.754 267.163 714.125 265.739 720.147 265.739C729.18 265.739 736.281 268.588 741.448 274.284C746.657 279.981 749.261 288.058 749.261 298.515V305.717H707.208C707.777 310.03 709.486 313.489 712.334 316.093C715.223 318.697 718.865 320 723.26 320C730.055 320 735.365 317.538 739.19 312.614L747.857 322.319C745.212 326.062 741.631 328.992 737.115 331.108C732.598 333.183 727.593 334.221 722.1 334.221ZM720.086 280.021C716.587 280.021 713.738 281.201 711.541 283.562C709.384 285.922 708.001 289.299 707.391 293.693H731.927V292.29C731.845 288.383 730.787 285.372 728.753 283.256C726.718 281.1 723.829 280.021 720.086 280.021ZM780.45 250.725V266.96H791.741V279.899H780.45V312.858C780.45 315.3 780.918 317.049 781.854 318.107C782.789 319.165 784.58 319.694 787.225 319.694C789.178 319.694 790.907 319.552 792.413 319.267V332.634C788.954 333.692 785.394 334.221 781.731 334.221C769.362 334.221 763.055 327.975 762.811 315.483V279.899H753.167V266.96H762.811V250.725H780.45Z" fill="white"/>
<path fill-rule="evenodd" clip-rule="evenodd" d="M106 362.861L195.021 119.898C206.317 91.5318 227.377 75.4746 255.373 75.0104V75L255.999 75.0026L256.626 75V75.0104C284.622 75.4746 305.682 91.5318 316.978 119.898L405.999 362.861L350.874 343.763L274.828 136.214C270.2 124.735 264.855 120.602 255.999 120.42C247.143 120.602 241.799 124.735 237.171 136.214L161.125 343.763L106 362.861ZM294.734 270.346C294.734 291.568 277.627 308.773 256.522 308.773C235.419 308.773 218.311 291.568 218.311 270.346C218.311 249.123 235.419 231.919 256.522 231.919C277.627 231.919 294.734 249.123 294.734 270.346Z" fill="url(#paint0_linear)"/>
<mask id="mask0" mask-type="alpha" maskUnits="userSpaceOnUse" x="106" y="75" width="300" height="288">
<path fill-rule="evenodd" clip-rule="evenodd" d="M106 362.861L195.021 119.898C206.317 91.5318 227.377 75.4746 255.373 75.0104V75L255.999 75.0026L256.626 75V75.0104C284.622 75.4746 305.682 91.5318 316.978 119.898L405.999 362.861L350.874 343.763L274.828 136.214C270.2 124.735 264.855 120.602 255.999 120.42C247.143 120.602 241.799 124.735 237.171 136.214L161.125 343.763L106 362.861ZM294.734 270.346C294.734 291.568 277.627 308.773 256.522 308.773C235.419 308.773 218.311 291.568 218.311 270.346C218.311 249.123 235.419 231.919 256.522 231.919C277.627 231.919 294.734 249.123 294.734 270.346Z" fill="white"/>
</mask>
<g mask="url(#mask0)">
</g>
<defs>
<linearGradient id="paint0_linear" x1="106" y1="75" x2="106" y2="362.861" gradientUnits="userSpaceOnUse">
<stop stop-color="#42C1FD"/>
<stop offset="1" stop-color="#1F8EFA"/>
</linearGradient>
</defs>
</svg>
