<svg width="65" height="65" viewBox="0 0 65 65" fill="none" xmlns="http://www.w3.org/2000/svg">
<path fill-rule="evenodd" clip-rule="evenodd" d="M65 32.5C65 50.4493 50.4493 65 32.5 65C14.5507 65 0 50.4493 0 32.5C0 14.5507 14.5507 0 32.5 0C50.4493 0 65 14.5507 65 32.5ZM47.1704 15.0356V15.0357C47.0333 15.036 46.8987 15.0724 46.7802 15.1411L46.7795 15.1404C46.7795 15.1404 44.646 16.3642 43.7403 16.8644C42.9979 17.2744 42.944 17.7679 42.9484 17.9346C42.944 18.1013 42.9979 18.5948 43.7403 19.0048C44.646 19.505 46.7795 20.7288 46.7795 20.7288L46.7802 20.7281C46.8987 20.7969 47.0333 20.8332 47.1704 20.8335C47.3774 20.8335 47.576 20.7512 47.7223 20.6048C47.8687 20.4584 47.951 20.2598 47.9509 20.0528C47.9508 19.9158 47.9146 19.7812 47.8459 19.6626C47.7773 19.544 47.6787 19.4456 47.5599 19.3772L47.5606 19.376L44.9319 17.9346L47.5607 16.4931L47.5601 16.4919C47.6788 16.4235 47.7774 16.3251 47.8461 16.2065C47.9147 16.0879 47.9509 15.9533 47.9511 15.8163C47.9511 15.6093 47.8688 15.4107 47.7225 15.2643C47.5761 15.1179 47.3775 15.0356 47.1705 15.0356L47.1704 15.0356ZM29.295 15.4535C28.9426 15.4535 28.5935 15.5229 28.2679 15.6578C27.9422 15.7927 27.6463 15.9904 27.3971 16.2396C27.1478 16.4888 26.9501 16.7847 26.8152 17.1104C26.6803 17.436 26.6109 17.7851 26.6109 18.1376C26.6108 18.4901 26.6803 18.8391 26.8152 19.1648C26.95 19.4904 27.1478 19.7863 27.397 20.0356C27.6463 20.2848 27.9422 20.4826 28.2678 20.6174C28.5935 20.7523 28.9425 20.8218 29.295 20.8217C29.6475 20.8217 29.9966 20.7523 30.3222 20.6174C30.6479 20.4825 30.9438 20.2848 31.193 20.0355C31.4422 19.7863 31.6399 19.4904 31.7748 19.1647C31.9097 18.8391 31.9791 18.49 31.9791 18.1376C31.9791 17.4257 31.6963 16.743 31.193 16.2396C30.6896 15.7363 30.0069 15.4535 29.295 15.4535ZM56.8778 24.401C56.5424 24.4015 56.2118 24.4804 55.9123 24.6314C55.6128 24.7823 55.3527 25.0012 55.1529 25.2705L55.1492 25.2678L50.8855 31.2626L50.8933 31.2651C50.6195 31.6323 50.47 32.0771 50.4664 32.5351C50.47 32.993 50.6195 33.4379 50.8933 33.8049L50.8855 33.8076L55.1492 39.8023L55.1529 39.7997C55.3528 40.069 55.6128 40.2878 55.9123 40.4388C56.2118 40.5897 56.5424 40.6686 56.8778 40.6691C57.1604 40.6691 57.4402 40.6134 57.7013 40.5053C57.9624 40.3972 58.1996 40.2386 58.3995 40.0388C58.5993 39.839 58.7578 39.6018 58.866 39.3407C58.9741 39.0796 59.0298 38.7998 59.0298 38.5172C59.0289 38.0737 58.891 37.6414 58.635 37.2793L58.6375 37.2774L55.262 32.535L58.6375 27.7927L58.635 27.7908C58.891 27.4288 59.0289 26.9965 59.0298 26.553C59.0298 26.2704 58.9742 25.9906 58.866 25.7295C58.7579 25.4684 58.5993 25.2312 58.3995 25.0313C58.1997 24.8315 57.9624 24.673 57.7013 24.5648C57.4402 24.4567 57.1604 24.401 56.8778 24.401ZM26.4938 43.9307C25.897 43.9307 25.4131 44.4382 25.4131 45.0642C25.4134 45.4962 25.6478 45.8905 26.0176 46.0809C32.278 50.0076 37.7804 49.6511 37.7804 49.6511C37.7804 49.6511 43.2827 50.0076 49.5432 46.0809C49.9129 45.8905 50.1474 45.4962 50.1477 45.0642C50.1476 44.4382 49.6638 43.9307 49.0669 43.9307C48.839 43.9314 48.617 44.0072 48.4328 44.1479L48.3385 44.2106C48.3385 44.2106 43.6436 47.5118 37.7804 47.4108C31.9173 47.5118 27.2223 44.2106 27.2223 44.2106L27.128 44.1479C26.9437 44.0072 26.7217 43.9312 26.4938 43.9307ZM40.58 24.3381C40.7787 24.3195 40.978 24.3094 41.1775 24.3079C41.377 24.3094 41.5764 24.3195 41.775 24.3381C41.8831 24.3486 41.9909 24.3617 42.0983 24.3773C42.2226 24.3928 42.3464 24.4116 42.4697 24.4337C42.5692 24.4538 42.6683 24.476 42.7668 24.5004C42.896 24.5296 43.0242 24.5624 43.1515 24.5988C43.2421 24.6269 43.3321 24.6568 43.4214 24.6886C43.5529 24.7322 43.683 24.7798 43.8116 24.8312C43.8941 24.8662 43.9759 24.9028 44.057 24.941C44.1883 24.9996 44.3178 25.0622 44.4452 25.1288C44.5188 25.1693 44.5915 25.211 44.6635 25.2541C44.7935 25.3283 44.9211 25.4066 45.046 25.489C45.1102 25.5333 45.1737 25.5786 45.2363 25.625C45.3631 25.7149 45.4867 25.8091 45.6071 25.9072C45.6624 25.9542 45.7168 26.0021 45.7705 26.0508C45.8921 26.1565 46.0099 26.2664 46.1238 26.3803C46.1704 26.4289 46.2164 26.4782 46.2616 26.5281C46.3748 26.6482 46.4838 26.7724 46.5882 26.9002C46.6281 26.9513 46.6673 27.0029 46.7058 27.055C46.8086 27.1884 46.9064 27.3255 46.9993 27.466C47.0314 27.5168 47.0628 27.5681 47.0936 27.6197C47.185 27.7664 47.2709 27.9165 47.3512 28.0695C47.3763 28.1201 47.4009 28.1709 47.4248 28.2221C47.5027 28.3799 47.5745 28.5406 47.6402 28.7039C47.6595 28.755 47.6783 28.8063 47.6964 28.8579C47.7587 29.0241 47.8146 29.1927 47.864 29.3632C47.8777 29.4146 47.8909 29.4661 47.9034 29.5178C47.9494 29.6915 47.9886 29.8669 48.021 30.0436C48.0291 30.0932 48.0366 30.1429 48.0435 30.1926C48.0723 30.3718 48.0942 30.552 48.1089 30.7329C48.1184 30.847 48.125 30.9613 48.1289 31.0756H48.1305V31.1209C48.1327 31.1693 48.1344 31.2176 48.1356 31.2659L48.1335 31.3227H48.1326H48.1303V38.5976H48.1294C48.1229 39.149 47.8994 39.6758 47.5072 40.0635C47.115 40.4513 46.5858 40.6688 46.0343 40.669C45.4828 40.6687 44.9537 40.4511 44.5616 40.0634C44.1695 39.6756 43.946 39.149 43.9395 38.5976H43.9383V38.5731V31.0894C43.9028 30.5324 43.6998 29.9991 43.356 29.5595C43.0121 29.1198 42.5435 28.7943 42.0114 28.6256C41.9314 28.6007 41.8503 28.5794 41.7683 28.5618L41.7419 28.5551C41.6764 28.5423 41.6106 28.5318 41.5444 28.5238C41.5177 28.5193 41.491 28.5153 41.4642 28.5116C41.4139 28.5073 41.3634 28.5045 41.313 28.503C41.2679 28.4996 41.2227 28.4974 41.1775 28.4962H41.1773C41.1377 28.4973 41.0982 28.4993 41.0587 28.5022C41.0022 28.5037 40.9458 28.5069 40.8895 28.5118C40.8667 28.515 40.844 28.5184 40.8213 28.5221C40.7514 28.5305 40.6818 28.5415 40.6127 28.5551L40.5921 28.5604C40.0039 28.6882 39.4733 29.0043 39.0808 29.4606C38.6883 29.9169 38.4551 30.4887 38.4165 31.0894V38.5731V38.5976H38.4153C38.4089 39.149 38.1854 39.6757 37.7933 40.0634C37.4012 40.4511 36.872 40.6687 36.3206 40.669C35.7691 40.6688 35.2399 40.4513 34.8477 40.0635C34.4555 39.6758 34.2319 39.1491 34.2255 38.5976H34.2246V31.3227H34.2222H34.2215L34.2195 31.2659C34.2207 31.2176 34.2224 31.1693 34.2246 31.1209V31.0756H34.2262C34.2301 30.9612 34.2367 30.8469 34.2462 30.7328C34.2608 30.5537 34.2824 30.3752 34.3109 30.1978C34.3181 30.1454 34.326 30.0931 34.3345 30.0409C34.3667 29.8658 34.4056 29.6919 34.4512 29.5198C34.4639 29.4673 34.4773 29.415 34.4912 29.3629C34.5406 29.1925 34.5965 29.024 34.6587 28.8579C34.6769 28.8063 34.6956 28.7549 34.715 28.7038C34.7803 28.5415 34.8517 28.3817 34.929 28.2248C34.9535 28.1724 34.9787 28.1202 35.0045 28.0684C35.0845 27.9159 35.1702 27.7664 35.2613 27.6203C35.2921 27.5685 35.3237 27.517 35.3558 27.466C35.4487 27.3255 35.5465 27.1884 35.6493 27.055C35.6878 27.0029 35.727 26.9513 35.7669 26.9002C35.8713 26.7724 35.9803 26.6483 36.0935 26.5281C36.1387 26.4782 36.1847 26.4289 36.2313 26.3803C36.3452 26.2664 36.463 26.1565 36.5845 26.0508C36.6383 26.0021 36.6927 25.9543 36.748 25.9073C36.8681 25.8093 36.9914 25.7154 37.1178 25.6257C37.181 25.5789 37.2449 25.5332 37.3097 25.4885C37.4339 25.4067 37.5607 25.3288 37.6899 25.2551C37.7627 25.2115 37.8362 25.1693 37.9106 25.1285C38.0375 25.0622 38.1665 24.9998 38.2973 24.9414C38.3787 24.9031 38.4608 24.8663 38.5436 24.8312C38.6722 24.7798 38.8023 24.7322 38.9337 24.6886C39.023 24.6568 39.113 24.6269 39.2036 24.5988C39.3309 24.5624 39.4591 24.5296 39.5883 24.5004C39.6868 24.476 39.7859 24.4538 39.8854 24.4337C40.0087 24.4116 40.1325 24.3928 40.2568 24.3773C40.3642 24.3617 40.472 24.3486 40.58 24.3381ZM6.62813 25.0607C7.02119 24.6676 7.5543 24.4468 8.11018 24.4468C8.6081 24.4474 9.08946 24.6252 9.46818 24.9485C9.84691 25.2717 10.0982 25.7192 10.177 26.2109L10.1818 26.2099L11.413 31.2147L13.2962 25.8352L13.3033 25.8377L13.3072 25.8283C13.3267 25.7753 13.3482 25.7232 13.3719 25.672C13.3775 25.6592 13.3832 25.6465 13.3891 25.6338C13.4134 25.5839 13.4397 25.5349 13.4679 25.4871C13.4749 25.4746 13.482 25.4622 13.4893 25.4498C13.518 25.4034 13.5485 25.3581 13.5808 25.314C13.5898 25.3012 13.5989 25.2885 13.6081 25.2759C13.6402 25.234 13.674 25.1934 13.7092 25.1541C13.7207 25.1407 13.7323 25.1275 13.7441 25.1144C13.7798 25.0765 13.817 25.0399 13.8554 25.0048C13.8682 24.9926 13.8811 24.9806 13.8941 24.9688C13.9322 24.9358 13.9715 24.9041 14.0119 24.8739C14.0279 24.8613 14.0442 24.8489 14.0606 24.8368C14.0996 24.8095 14.1395 24.7835 14.1803 24.7589C14.1994 24.7468 14.2187 24.7349 14.2382 24.7234C14.2788 24.7006 14.3202 24.6792 14.3622 24.6592C14.3833 24.6486 14.4045 24.6383 14.4259 24.6284C14.4665 24.6108 14.5075 24.5945 14.5491 24.5795C14.5738 24.5699 14.5986 24.5608 14.6237 24.5522C14.6634 24.5396 14.7034 24.5282 14.7438 24.518C14.7717 24.5103 14.7997 24.5032 14.8278 24.4966C14.8658 24.4887 14.9039 24.4819 14.9422 24.4761C14.9735 24.4706 15.005 24.4659 15.0365 24.4618C15.0729 24.4581 15.1094 24.4552 15.1459 24.4534C15.1888 24.4498 15.2318 24.4477 15.2748 24.4468H15.2757C15.3178 24.4476 15.3598 24.4497 15.4018 24.4531C15.4399 24.455 15.4779 24.458 15.5158 24.462C15.5451 24.4658 15.5744 24.4702 15.6035 24.4752C15.644 24.4813 15.6843 24.4886 15.7243 24.497C15.7511 24.5033 15.7778 24.5101 15.8044 24.5175C15.8456 24.5278 15.8864 24.5394 15.9268 24.5522C15.9518 24.5609 15.9767 24.5699 16.0014 24.5795C16.0429 24.5945 16.084 24.6108 16.1245 24.6284C16.1459 24.6383 16.1672 24.6486 16.1882 24.6592C16.2304 24.6793 16.2718 24.7007 16.3126 24.7235C16.3314 24.7347 16.3501 24.7461 16.3686 24.7578C16.4102 24.783 16.4509 24.8095 16.4907 24.8375C16.5063 24.849 16.5218 24.8608 16.5372 24.8728C16.578 24.9034 16.6178 24.9354 16.6563 24.9688C16.6694 24.9807 16.6823 24.9926 16.6951 25.0048C16.7336 25.04 16.7708 25.0766 16.8066 25.1145C16.8181 25.1273 16.8294 25.1401 16.8405 25.1531C16.8762 25.1929 16.9103 25.2341 16.9429 25.2765C16.9516 25.2885 16.9603 25.3006 16.9688 25.3128C17.0014 25.3573 17.0323 25.4031 17.0613 25.45C17.0684 25.462 17.0753 25.4741 17.0821 25.4863C17.1106 25.5345 17.1372 25.5839 17.1617 25.6343C17.1673 25.6465 17.1728 25.6588 17.1781 25.6711C17.202 25.7226 17.2238 25.7751 17.2434 25.8284L17.2472 25.8377L17.2543 25.8352L19.1374 31.2147L20.3687 26.21L20.3734 26.2109C20.4523 25.7192 20.7035 25.2717 21.0823 24.9485C21.461 24.6252 21.9424 24.4474 22.4403 24.4468C22.9962 24.4468 23.5293 24.6676 23.9224 25.0607C24.3155 25.4537 24.5363 25.9868 24.5363 26.5427C24.5357 26.6982 24.5178 26.8531 24.483 27.0046L24.4875 27.0055L21.5149 39.1231L21.5093 39.1218C21.3889 39.5656 21.1259 39.9575 20.7608 40.2371C20.3957 40.5167 19.9488 40.6685 19.489 40.669C19.0442 40.6685 18.6112 40.5265 18.2525 40.2636C17.8938 40.0007 17.628 39.6306 17.4936 39.2066L17.4909 39.2195L15.2752 32.8962L13.0596 39.2195L13.057 39.2066C12.9225 39.6306 12.6567 40.0007 12.298 40.2636C11.9393 40.5265 11.5063 40.6685 11.0615 40.669C10.6017 40.6685 10.1548 40.5167 9.78972 40.2371C9.42464 39.9575 9.16164 39.5656 9.04126 39.1218L9.03564 39.1231L6.06301 27.0055L6.06755 27.0046C6.0327 26.8531 6.01482 26.6982 6.01424 26.5427C6.01424 25.9868 6.23506 25.4537 6.62813 25.0607ZM27.9118 25.049C28.3035 24.6635 28.8309 24.4473 29.3805 24.4469C29.9301 24.4471 30.4577 24.6633 30.8495 25.0488C31.2413 25.4342 31.466 25.9582 31.4752 26.5078H31.4763V26.5428V38.5731V38.7174H31.4691C31.4325 39.2466 31.1967 39.7423 30.8091 40.1045C30.4214 40.4667 29.9109 40.6684 29.3804 40.669C28.8495 40.669 28.3384 40.4675 27.9504 40.1052C27.5623 39.743 27.3261 39.247 27.2896 38.7174H27.2845V38.5731V26.5428V26.5078H27.2863C27.2955 25.9583 27.5201 25.4344 27.9118 25.049Z" fill="url(#paint0_linear)"/>
<defs>
<linearGradient id="paint0_linear" x1="32.5" y1="0" x2="32.5" y2="65" gradientUnits="userSpaceOnUse">
<stop stop-color="#FFD851"/>
<stop offset="1" stop-color="#FBC509"/>
</linearGradient>
</defs>
</svg>
